# xmcd CD database file
#
# Track frame offsets:
#	150
#	22212
#	42010
#	60750
#	81935
#	103695
#	121845
#	141132
#	165005
#	185310
#	219692
#
# Disc length: 4440 seconds
#
# Revision: 0
# Processed by: cddbd v1.5.1PL0 Copyright (c) Steve Scherf et al.
# Submitted via: CDex 1.51
#
DISCID=8711560b
DTITLE=Various Artist - buddies
DYEAR=2003
DGENRE=J-POP
TTITLE0=w-inds./NEW PARADISE - DJ TATSUTA CASSETTE VISION's REMIX
TTITLE1=FLAME/What Can I Do? - floatin' reflex REMIX
TTITLE2=w-inds./Paradox - TinyVoice,Production REMIX
TTITLE3=Lead/FLY AWAY - AKIRA'S CONQUISTADOR REMIX
TTITLE4=w-inds./Forever Memories - Sweet Memories REMIX
TTITLE5=FLAME/BYE MY LOVE - TinyVoice,Production REMIX
TTITLE6=Lead/"Show me the way" - TinyVoice,Production REMIX
TTITLE7=w-inds./Another Days - The Real Vibe Remix
TTITLE8=FLAME/ムネノコドウ - Liga Oriente Remix
TTITLE9=buddies Mega Mix - TinyVoice,Production REMIX
TTITLE10=cccd data
EXTD=YEAR: 2003
EXTT0=
EXTT1=
EXTT2=
EXTT3=
EXTT4=
EXTT5=
EXTT6=
EXTT7=
EXTT8=
EXTT9=
EXTT10=
PLAYORDER=
